<svg width="60" height="60" viewBox="0 0 60 60" fill="none" xmlns="http://www.w3.org/2000/svg">
<g clip-path="url(#clip0_2726_841)">
<path d="M29.2793 21.1747V21.9846C29.2793 22.47 29.6727 22.8635 30.1582 22.8635C30.6437 22.8635 31.0371 22.47 31.0371 21.9846V21.2324C32.4426 20.9832 33.5842 19.972 33.8136 18.6868C34.1462 16.824 32.5537 15.7521 31.0371 15.1731V12.7439C31.6703 12.9388 32.1087 13.2875 32.1272 13.3025C32.4987 13.6117 33.0506 13.5628 33.362 13.1924C33.6743 12.8208 33.6263 12.2664 33.2547 11.9541C33.2012 11.9092 32.3144 11.178 31.0371 10.9343V10.2715C31.0371 9.78609 30.6437 9.39258 30.1582 9.39258C29.6727 9.39258 29.2793 9.78609 29.2793 10.2715V10.9664C28.1274 11.2398 27.1473 12.1213 26.9743 13.3261C26.7321 15.013 27.9408 15.8146 29.2793 16.3662V19.3569C28.7774 19.1889 28.3277 18.9076 27.9916 18.5367C27.6656 18.1768 27.1097 18.1499 26.7501 18.4757C26.3905 18.8016 26.3631 19.3574 26.6891 19.7172C27.3499 20.4463 28.2737 20.9575 29.2793 21.1747ZM32.0831 18.3778C32.0078 18.7995 31.6189 19.2313 31.037 19.4265V17.0577C31.7952 17.391 32.1749 17.8642 32.0831 18.3778ZM29.025 14.3484C28.7857 14.1681 28.6701 13.8836 28.7143 13.5758C28.7378 13.4129 28.8408 13.0518 29.2793 12.8223V14.4587C29.1683 14.411 29.0809 14.3729 29.025 14.3484Z" fill="#FE9015"/>
<path d="M15.4772 40.5969C16.78 40.5969 18.0047 40.0895 18.9259 39.1684C20.0525 38.0419 21.091 36.7872 21.1584 35.1066C21.2126 33.7573 20.6914 32.416 19.7362 31.4606L15.6528 27.3774C13.7749 25.4992 10.6335 25.4992 8.7553 27.3774L7.9453 28.1876C6.06726 30.0655 6.0669 33.2067 7.94519 35.0851L12.0285 39.1684C12.9497 40.0896 14.1744 40.5969 15.4772 40.5969ZM14.41 28.6204L18.4932 32.7037C19.6335 33.844 19.7047 35.6547 18.7071 36.8787L10.2259 28.414C11.447 27.4087 13.2936 27.5039 14.41 28.6204ZM8.27437 31.6363C8.27437 30.9058 8.52398 30.2134 8.98276 29.6568L17.4656 38.1231C16.2448 39.1369 14.3914 39.0455 13.2715 37.9254L9.18808 33.8422C8.59898 33.253 8.27437 32.4696 8.27437 31.6363Z" fill="#FE9015"/>
<path d="M30.1586 27.1151C36.2175 27.1151 41.1468 22.1858 41.1468 16.1269C41.1468 10.0679 36.2176 5.13867 30.1586 5.13867C24.0997 5.13867 19.1704 10.0679 19.1704 16.1269C19.1704 22.1858 24.0998 27.1151 30.1586 27.1151ZM30.1586 6.8966C35.2483 6.8966 39.389 11.0373 39.389 16.127C39.389 21.2167 35.2483 25.3574 30.1586 25.3574C25.0689 25.3574 20.9282 21.2167 20.9282 16.127C20.9282 11.0373 25.0689 6.8966 30.1586 6.8966Z" fill="#FE9015"/>
<path d="M31.037 55.0889L41.2884 44.8573C43.1898 46.5478 46.1764 46.4539 47.9729 44.6576L52.056 40.5743C53.9341 38.6964 53.9344 35.555 52.0562 33.6769L51.2461 32.8665C49.3442 30.9648 46.2501 30.9648 44.3484 32.8665L40.2651 36.9498C38.4397 38.7752 38.3677 41.6991 40.047 43.6127L31.037 52.6054V32.2305C39.5224 31.7726 46.2854 24.7252 46.2854 16.1273C46.2854 7.23469 39.0507 0 30.158 0C25.2611 0 20.686 2.18719 17.6057 6.00082C17.3006 6.3784 17.3595 6.93176 17.7371 7.2368C18.1149 7.54195 18.6682 7.48289 18.9731 7.10531C21.718 3.70688 25.7948 1.75781 30.158 1.75781C38.0814 1.75781 44.5276 8.20395 44.5276 16.1275C44.5276 24.051 38.0814 30.4971 30.158 30.4971C22.2346 30.4971 15.7884 24.051 15.7884 16.1275C15.7884 14.228 16.1529 12.3826 16.8719 10.6429C17.0573 10.1943 16.8439 9.68027 16.3953 9.49488C15.9467 9.30961 15.4329 9.52301 15.2473 9.97148C14.4399 11.9252 14.0306 13.9964 14.0306 16.1275C14.0306 24.7253 20.7936 31.7727 29.2791 32.2307V47.4301L22.4162 40.5805C22.0726 40.2376 21.5161 40.2382 21.1733 40.5817C20.8304 40.9253 20.831 41.4818 21.1746 41.8247L29.2793 49.9136V58.2422H20.2072V54.5654C20.2072 54.3323 20.1146 54.1087 19.9498 53.944L16.0953 50.0895C16.3214 49.6507 16.4499 49.1538 16.4499 48.6271C16.4499 46.8604 15.0126 45.4232 13.2459 45.4232C11.4793 45.4232 10.042 46.8605 10.042 48.6271C10.042 50.3937 11.4793 51.831 13.2459 51.831C13.848 51.831 14.4118 51.6637 14.8936 51.3737L18.4494 54.9294V58.2422H12.8285C12.343 58.2422 11.9496 58.6357 11.9496 59.1211C11.9496 59.6065 12.343 60 12.8285 60H47.7849C48.2704 60 48.6638 59.6065 48.6638 59.1211C48.6638 58.6357 48.2704 58.2422 47.7849 58.2422H42.8438V54.6796C42.8438 54.1942 42.4504 53.8007 41.9649 53.8007C41.4794 53.8007 41.086 54.1942 41.086 54.6796V58.2422H31.0371V55.0889H31.037ZM50.8132 39.3314L46.7299 43.4147C45.6102 44.5345 43.7568 44.6263 42.5357 43.6124L51.0186 35.1459C52.0249 36.3671 51.9301 38.2145 50.8132 39.3314ZM41.5081 38.1928L45.5913 34.1095C46.7068 32.994 48.5545 32.9006 49.7754 33.9033L41.2944 42.3677C40.2966 41.1437 40.3679 39.333 41.5081 38.1928ZM11.7998 48.6272C11.7998 47.8297 12.4484 47.1811 13.2459 47.1811C14.0434 47.1811 14.6921 47.8298 14.6921 48.6272C14.6921 49.4245 14.0434 50.0733 13.2459 50.0733C12.4484 50.0733 11.7998 49.4245 11.7998 48.6272Z" fill="#FE9015"/>
</g>
<defs>
<clipPath id="clip0_2726_841">
<rect width="60" height="60" fill="white"/>
</clipPath>
</defs>
</svg>
