<svg width="60" height="60" viewBox="0 0 60 60" fill="none" xmlns="http://www.w3.org/2000/svg">
<g clip-path="url(#clip0_2726_847)">
<path d="M45.0293 40.2734C45.5147 40.2734 45.9082 39.8798 45.9082 39.3945V38.4551C45.9082 37.9697 45.5147 37.5762 45.0293 37.5762C44.5439 37.5762 44.1504 37.9697 44.1504 38.4551V39.3945C44.1504 39.8798 44.5439 40.2734 45.0293 40.2734Z" fill="#FE9015"/>
<path d="M44.1504 45.9706C44.1504 46.456 44.5439 46.8495 45.0293 46.8495C45.5147 46.8495 45.9082 46.456 45.9082 45.9706V45.0313C45.9082 44.5459 45.5147 44.1523 45.0293 44.1523C44.5439 44.1523 44.1504 44.5459 44.1504 45.0313V45.9706Z" fill="#FE9015"/>
<path d="M56.3032 41.3332H53.3783C53.2849 40.4398 53.0492 39.5888 52.6971 38.8006L55.2323 37.337C55.6527 37.0943 55.7967 36.5567 55.554 36.1364C55.3113 35.7159 54.7736 35.5719 54.3534 35.8147L51.8162 37.2795C51.2987 36.5696 50.673 35.9439 49.9631 35.4264L51.4279 32.8892C51.6706 32.4689 51.5266 31.9313 51.1063 31.6886C50.6859 31.4458 50.1484 31.59 49.9057 32.0103L48.442 34.5455C47.6538 34.1934 46.8027 33.9577 45.9095 33.8643V30.9395C45.9095 30.4541 45.5159 30.0605 45.0305 30.0605C44.5452 30.0605 44.1516 30.4541 44.1516 30.9395V33.8643C43.2583 33.9577 42.4073 34.1934 41.619 34.5455L40.1553 32.0103C39.9125 31.59 39.3751 31.4458 38.9547 31.6886C38.5344 31.9313 38.3904 32.4689 38.633 32.8892L40.0979 35.4264C39.388 35.9439 38.7623 36.5696 38.2448 37.2795L35.7076 35.8147C35.2872 35.5719 34.7497 35.716 34.507 36.1364C34.2643 36.5567 34.4083 37.0943 34.8287 37.337L37.3639 38.8006C37.0118 39.5888 36.7761 40.44 36.6827 41.3332H33.7578C33.2724 41.3332 32.8789 41.7267 32.8789 42.2121C32.8789 42.6975 33.2724 43.091 33.7578 43.091H36.6832C36.7752 43.9671 37.0041 44.823 37.361 45.6253L34.8287 47.0873C34.4083 47.33 34.2643 47.8675 34.507 48.2879C34.6698 48.5698 34.9652 48.7275 35.2689 48.7275C35.418 48.7275 35.5692 48.6895 35.7076 48.6096L38.9618 46.7308C39.3821 46.4881 39.5261 45.9506 39.2834 45.5302C39.2803 45.5247 39.2765 45.5199 39.2732 45.5145C38.6983 44.5146 38.3943 43.3732 38.3943 42.2121C38.3943 38.5529 41.3714 35.5759 45.0305 35.5759C48.6897 35.5759 51.6668 38.5529 51.6668 42.2121C51.6668 45.8714 48.6897 48.8483 45.0305 48.8483C43.8697 48.8483 42.7284 48.5444 41.7287 47.9697C41.7232 47.9663 41.718 47.9625 41.7124 47.9592C41.292 47.7164 40.7545 47.8605 40.5118 48.2809L38.633 51.535C38.3904 51.9554 38.5344 52.4929 38.9547 52.7356C39.0931 52.8155 39.2443 52.8535 39.3934 52.8535C39.6971 52.8535 39.9925 52.6958 40.1553 52.4139L41.6173 49.8816C42.4196 50.2385 43.2755 50.4673 44.1516 50.5593V53.4847C44.1516 53.9701 44.5452 54.3636 45.0305 54.3636C45.5159 54.3636 45.9095 53.9701 45.9095 53.4847V50.5598C46.8028 50.4664 47.6538 50.2307 48.442 49.8786L49.9057 52.4138C50.0684 52.6958 50.3639 52.8534 50.6676 52.8534C50.8167 52.8534 50.9679 52.8154 51.1063 52.7355C51.5266 52.4928 51.6706 51.9553 51.4279 51.5349L49.9631 48.9977C50.673 48.4802 51.2987 47.8545 51.8162 47.1446L54.3534 48.6095C54.4918 48.6894 54.643 48.7273 54.792 48.7273C55.0958 48.7273 55.3912 48.5696 55.554 48.2878C55.7967 47.8674 55.6527 47.3299 55.2323 47.0872L52.6971 45.6235C53.0492 44.8353 53.2849 43.9842 53.3783 43.0909H56.3032C56.7886 43.0909 57.1821 42.6973 57.1821 42.212C57.1821 41.7266 56.7886 41.3332 56.3032 41.3332Z" fill="#FE9015"/>
<path d="M48.788 43.0918C49.2734 43.0918 49.6669 42.6983 49.6669 42.2129C49.6669 41.7275 49.2734 41.334 48.788 41.334H47.8486C47.3632 41.334 46.9697 41.7275 46.9697 42.2129C46.9697 42.6983 47.3632 43.0918 47.8486 43.0918H48.788Z" fill="#FE9015"/>
<path d="M41.272 43.0918H42.2113C42.6967 43.0918 43.0903 42.6983 43.0903 42.2129C43.0903 41.7275 42.6967 41.334 42.2113 41.334H41.272C40.7866 41.334 40.3931 41.7275 40.3931 42.2129C40.3931 42.6983 40.7866 43.0918 41.272 43.0918Z" fill="#FE9015"/>
<path d="M59.4668 16.0408C53.3597 13.4235 51.5171 8.16691 51.5 8.11617C51.407 7.83738 51.1809 7.62351 50.8974 7.54617L30.2308 1.90993C30.0794 1.86856 29.9197 1.86856 29.7683 1.90993L9.10173 7.54629C8.81978 7.62316 8.59372 7.83738 8.49986 8.11418C8.48193 8.16691 6.63939 13.4236 0.532174 16.041C0.165378 16.1982 -0.0494261 16.5828 0.00905038 16.9776C0.0481909 17.2422 1.01639 23.5522 5.1415 31.8024C7.56095 36.6413 10.5707 41.1381 14.0868 45.168C18.4825 50.2057 23.6855 54.5226 29.5513 57.9986C29.6894 58.0805 29.8443 58.1214 29.9994 58.1214C30.1543 58.1214 30.3093 58.0805 30.4475 57.9986C32.4255 56.8263 34.3497 55.5448 36.1665 54.1895C36.5555 53.8992 36.6356 53.3486 36.3453 52.9594C36.0552 52.5705 35.5044 52.4903 35.1153 52.7805C33.4855 53.9963 31.7666 55.1513 29.9993 56.2183C24.4905 52.8927 19.5947 48.7997 15.4409 44.0461C12.025 40.1372 9.09915 35.7744 6.74474 31.0784C3.81248 25.2302 2.34002 19.9018 1.8592 17.37C7.22954 14.8208 9.40173 10.5312 9.99177 9.12539L29.9995 3.66891L50.007 9.1255C50.5968 10.5309 52.7673 14.818 58.1341 17.3675C57.7722 19.2057 56.4821 24.7576 53.0511 31.4796C52.8304 31.9119 53.002 32.4413 53.4344 32.662C53.8668 32.8826 54.396 32.711 54.6168 32.2787C58.9437 23.8012 59.9493 17.2522 59.99 16.9775C60.0484 16.5827 59.8336 16.1981 59.4668 16.0408Z" fill="#FE9015"/>
<path d="M46.1635 13.9193C47.2141 15.6331 48.9718 17.9514 51.6757 20.0071C50.9715 22.3553 49.7461 25.7673 47.7321 29.59C47.5058 30.0195 47.6706 30.5511 48.0999 30.7772C48.5293 31.0035 49.0609 30.8388 49.2872 30.4094C51.5454 26.1236 52.8445 22.332 53.5367 19.906C53.6386 19.549 53.5052 19.1665 53.2036 18.9503C50.2884 16.8616 48.4886 14.4081 47.4922 12.7178C47.3759 12.5206 47.1872 12.3764 46.9663 12.3162L30.2447 7.75586C30.1659 7.73289 30.0835 7.7207 29.9995 7.7207C29.9994 7.7207 29.9992 7.7207 29.999 7.7207C29.9154 7.72164 29.8325 7.73277 29.7538 7.75574L13.0317 12.3163C12.8108 12.3766 12.6221 12.5207 12.5058 12.7179C11.5091 14.4086 9.70884 16.8624 6.79333 18.9511C6.49157 19.1673 6.35821 19.5497 6.46005 19.9067C7.42755 23.2976 9.33208 28.5344 12.9112 34.2265C17.1908 41.0327 22.7749 46.7797 29.5084 51.3079C29.6567 51.4076 29.8278 51.4574 29.9989 51.4574C30.17 51.4574 30.3411 51.4076 30.4895 51.3079C31.1329 50.8751 31.7747 50.425 32.3966 49.9702C32.7883 49.6837 32.8738 49.1337 32.5872 48.742C32.3006 48.3501 31.7508 48.2649 31.359 48.5513C31.2003 48.6674 31.039 48.7825 30.8779 48.8977V9.75063L46.1635 13.9193ZM14.3994 33.2908C11.1301 28.0912 9.30407 23.2898 8.32111 20.0079C11.0253 17.9522 12.7835 15.6334 13.8343 13.9193L29.12 9.75063V48.8979C23.2013 44.6638 18.2538 39.4206 14.3994 33.2908Z" fill="#FE9015"/>
</g>
<defs>
<clipPath id="clip0_2726_847">
<rect width="60" height="60" fill="white"/>
</clipPath>
</defs>
</svg>
