<svg width="60" height="60" viewBox="0 0 60 60" fill="none" xmlns="http://www.w3.org/2000/svg">
<g clip-path="url(#clip0_2726_811)">
<path d="M29.7896 4.50492C30.2754 4.50492 30.6691 4.11117 30.6691 3.62543V0.879492C30.6691 0.39375 30.2754 0 29.7896 0C29.3039 0 28.9102 0.393633 28.9102 0.879492V3.62543C28.9102 4.11117 29.3039 4.50492 29.7896 4.50492Z" fill="#FE9015"/>
<path d="M11.1965 9.36163C11.5011 9.60937 11.8058 9.86718 12.4351 9.47554C12.8085 9.16499 12.8595 8.61046 12.5491 8.2371L10.2413 5.46175C9.93064 5.08816 9.37611 5.0373 9.00275 5.34784C8.62927 5.65839 8.57829 6.21292 8.88872 6.58628L11.1965 9.36163Z" fill="#FE9015"/>
<path d="M47.1454 9.47557C47.333 9.65803 47.9645 9.82186 48.3838 9.36166L50.6916 6.58619C51.0022 6.21272 50.9512 5.6583 50.5777 5.34776C50.2042 5.03733 49.6499 5.08819 49.3393 5.46166L47.0315 8.23713C46.7208 8.61049 46.7718 9.16502 47.1454 9.47557Z" fill="#FE9015"/>
<path d="M58.8876 22.3223H54.8312C54.3454 22.3223 53.9517 22.7159 53.9517 23.2018C53.9517 23.6875 54.3453 24.0812 54.8312 24.0812H58.8876C59.3733 24.0812 59.7671 23.6876 59.7671 23.2018C59.7671 22.7159 59.3733 22.3223 58.8876 22.3223Z" fill="#FE9015"/>
<path d="M5.16934 22.3223H1.11289C0.627149 22.3223 0.233398 22.7159 0.233398 23.2018C0.233398 23.6875 0.627149 24.0812 1.11289 24.0812H5.16934C5.65508 24.0812 6.04883 23.6876 6.04883 23.2018C6.04883 22.7159 5.65508 22.3223 5.16934 22.3223Z" fill="#FE9015"/>
<path d="M56.613 37.0669C56.147 37.2036 55.8799 37.6922 56.0165 38.1582C56.277 39.0467 56.4092 39.9718 56.4092 40.9078C56.4092 46.2851 52.0345 50.6597 46.6573 50.6597C41.2802 50.6597 36.9055 46.2849 36.9055 40.9078C36.9055 35.5304 41.2802 31.1558 46.6573 31.1558C49.6886 31.1558 52.496 32.5298 54.3596 34.9257C54.658 35.3092 55.2105 35.3781 55.5938 35.0798C55.9771 34.7816 56.0462 34.229 55.7479 33.8456C54.05 31.663 51.688 30.1999 49.0532 29.6457L52.2076 26.1198C52.5076 25.77 52.7138 25.1543 52.3749 24.5062L45.5345 12.6582C45.4255 12.4275 44.8263 11.7916 44.0466 11.7989H15.955C15.7668 11.8026 15.4793 11.8422 15.0962 12.029C15.0772 12.0873 14.9561 11.9836 14.4675 12.6579L7.62641 24.5069C7.40797 24.9153 7.32605 25.55 7.7927 26.119L28.9479 49.8127C29.2078 50.0392 29.9765 50.7494 31.0099 49.8138L35.7325 44.5351C37.2555 49.1102 41.5771 52.4186 46.6572 52.4186C53.0042 52.4186 58.1681 47.2549 58.1681 40.9078C58.1681 39.8042 58.0121 38.7127 57.7044 37.6633C57.5677 37.1974 57.0793 36.9304 56.613 37.0669ZM22.736 23.5028L16.9944 13.558H28.4777L22.736 23.5028ZM22.0771 26.1411L27.8889 45.9861L10.1703 26.1411H22.0771ZM23.6857 25.3755L30.0008 14.4376L35.7424 24.3822H27.7024C27.2166 24.3822 26.8229 24.7759 26.8229 25.2617C26.8229 25.7476 27.2166 26.1412 27.7024 26.1412H36.0896L29.9813 46.873L23.6857 25.3755ZM37.2657 23.5028L31.524 13.558H43.0073L37.2657 23.5028ZM44.5305 14.4375L50.2721 24.3821H38.7889L44.5305 14.4375ZM15.4711 14.4374L21.2127 24.3821H9.72945L15.4711 14.4374ZM32.0775 45.9825L37.9235 26.1411H49.8286L46.9723 29.3335C46.953 29.3552 46.9351 29.3776 46.9182 29.4006C46.8314 29.3987 46.7444 29.3968 46.6572 29.3968C40.3102 29.3968 35.1464 34.5606 35.1464 40.9078C35.1464 41.4266 35.1815 41.9373 35.2483 42.4381L32.0775 45.9825Z" fill="#FE9015"/>
<path d="M46.5922 48.3755C47.0779 48.3755 47.4716 47.9819 47.4716 47.496V46.7853C49.0226 46.4104 50.0174 45.0939 50.2357 43.7957C50.5179 42.1165 49.6407 40.6571 48.0009 40.0773C47.8267 40.0158 47.6493 39.9518 47.4716 39.8856V36.8075C47.851 36.9359 48.0729 37.1234 48.0903 37.1384L48.0816 37.1306C48.8743 37.8304 49.9971 36.7846 49.3554 35.9441L49.2741 35.8376C49.233 35.7996 48.5659 35.1995 47.4716 34.995V34.4342C47.4716 33.9484 47.078 33.5547 46.5922 33.5547C46.1063 33.5547 45.7127 33.9483 45.7127 34.4342V35.0567C45.6427 35.0741 45.572 35.0935 45.5004 35.115C44.4138 35.4425 43.6021 36.3707 43.3822 37.5374C43.1807 38.6065 43.5268 39.6402 44.2853 40.2351C44.6538 40.5241 45.1049 40.789 45.7125 41.0654V45.0999C45.2539 45.044 44.9193 44.9001 44.3883 44.5527C43.952 44.2674 43.3564 44.4194 43.1172 44.901C42.9173 45.3037 43.0736 45.7963 43.4506 46.0413C44.3311 46.6133 44.9527 46.8075 45.7125 46.8672V47.4959C45.7127 47.9818 46.1064 48.3755 46.5922 48.3755ZM48.501 43.5043C48.4094 44.0495 48.0598 44.6246 47.4715 44.9236V41.7576C48.6232 42.198 48.5518 43.2027 48.501 43.5043ZM45.3708 38.8513C45.1346 38.6661 45.0325 38.2783 45.1108 37.8634C45.1721 37.5381 45.3612 37.1582 45.7127 36.935V39.085C45.588 39.0088 45.4725 38.931 45.3708 38.8513Z" fill="#FE9015"/>
<path d="M35.0849 51.9199H24.9158C21.4898 51.9199 18.7026 54.7071 18.7026 58.1331C18.7026 59.1625 19.5401 59.9999 20.5693 59.9999H23.0233C23.5091 59.9999 23.9028 59.6062 23.9028 59.1204C23.9028 58.6345 23.5091 58.2409 23.0233 58.2409H20.5693C20.5099 58.2409 20.4615 58.1925 20.4615 58.133C20.4615 55.677 22.4597 53.6787 24.9158 53.6787H35.0849C37.5409 53.6787 39.5392 55.677 39.5392 58.133C39.5392 58.1924 39.4908 58.2409 39.4313 58.2409H26.9736C26.4879 58.2409 26.0941 58.6345 26.0941 59.1204C26.0941 59.6062 26.4879 59.9999 26.9736 59.9999H39.4313C40.4607 59.9999 41.2981 59.1625 41.2981 58.1331C41.298 54.7071 38.5108 51.9199 35.0849 51.9199Z" fill="#FE9015"/>
</g>
<defs>
<clipPath id="clip0_2726_811">
<rect width="60" height="60" fill="white"/>
</clipPath>
</defs>
</svg>
