<svg width="40" height="40" viewBox="0 0 40 40" fill="none" xmlns="http://www.w3.org/2000/svg">
<circle cx="20" cy="20" r="20" fill="#FE9015"/>
<path fill-rule="evenodd" clip-rule="evenodd" d="M14.647 16.412C14.647 13.4845 17.0202 11.1113 19.9476 11.1113C22.8751 11.1113 25.2483 13.4845 25.2483 16.412C25.2483 19.3395 22.8751 21.7126 19.9476 21.7126C17.0202 21.7126 14.647 19.3395 14.647 16.412ZM19.9476 12.8891C18.002 12.8891 16.4248 14.4664 16.4248 16.412C16.4248 18.3576 18.002 19.9349 19.9476 19.9349C21.8933 19.9349 23.4705 18.3576 23.4705 16.412C23.4705 14.4664 21.8933 12.8891 19.9476 12.8891Z" fill="white"/>
<path fill-rule="evenodd" clip-rule="evenodd" d="M19.1644 21.7778C16.1767 21.7778 13.7788 24.1583 13.7788 27.0654H12.001C12.001 23.1501 15.2214 20 19.1644 20H20.733C24.676 20 27.8964 23.1501 27.8964 27.0654H26.1186C26.1186 24.1583 23.7206 21.7778 20.733 21.7778H19.1644Z" fill="white"/>
</svg>
